<mxfile host="Electron" modified="2023-07-06T11:08:45.602Z" agent="Mozilla/5.0 (Windows NT 10.0; Win64; x64) AppleWebKit/537.36 (KHTML, like Gecko) draw.io/21.5.0 Chrome/112.0.5615.204 Electron/24.5.1 Safari/537.36" etag="uf0Y5rTT09bmHM1Jltw3" version="21.5.0" type="device">
  <diagram name="第 1 页" id="UpzL1G3w_BpIJ-0fAMqG">
    <mxGraphModel dx="977" dy="658" grid="1" gridSize="10" guides="1" tooltips="1" connect="1" arrows="1" fold="1" page="1" pageScale="1" pageWidth="827" pageHeight="1169" math="0" shadow="0">
      <root>
        <mxCell id="0" />
        <mxCell id="1" parent="0" />
        <mxCell id="6GjiStOughrnG-RPMvq7-66" style="edgeStyle=orthogonalEdgeStyle;rounded=0;orthogonalLoop=1;jettySize=auto;html=1;exitX=0.5;exitY=1;exitDx=0;exitDy=0;" parent="1" source="6GjiStOughrnG-RPMvq7-36" edge="1">
          <mxGeometry relative="1" as="geometry">
            <mxPoint x="546.1666666666667" y="660" as="targetPoint" />
          </mxGeometry>
        </mxCell>
        <mxCell id="6GjiStOughrnG-RPMvq7-46" value="&amp;nbsp;" style="rounded=1;whiteSpace=wrap;html=1;" parent="1" vertex="1">
          <mxGeometry x="282.5" y="445" width="527.5" height="175" as="geometry" />
        </mxCell>
        <mxCell id="5LBQB4eE829Ms8kHl0Jh-4" style="edgeStyle=orthogonalEdgeStyle;rounded=0;orthogonalLoop=1;jettySize=auto;html=1;exitX=1;exitY=0.5;exitDx=0;exitDy=0;entryX=0;entryY=0.5;entryDx=0;entryDy=0;" parent="1" source="5LBQB4eE829Ms8kHl0Jh-2" target="5LBQB4eE829Ms8kHl0Jh-3" edge="1">
          <mxGeometry relative="1" as="geometry" />
        </mxCell>
        <mxCell id="5LBQB4eE829Ms8kHl0Jh-2" value="Java程序" style="rounded=1;whiteSpace=wrap;html=1;" parent="1" vertex="1">
          <mxGeometry x="170" y="280" width="90" height="30" as="geometry" />
        </mxCell>
        <mxCell id="5LBQB4eE829Ms8kHl0Jh-21" style="edgeStyle=orthogonalEdgeStyle;rounded=0;orthogonalLoop=1;jettySize=auto;html=1;entryX=0;entryY=0.5;entryDx=0;entryDy=0;" parent="1" source="5LBQB4eE829Ms8kHl0Jh-3" target="5LBQB4eE829Ms8kHl0Jh-6" edge="1">
          <mxGeometry relative="1" as="geometry" />
        </mxCell>
        <mxCell id="5LBQB4eE829Ms8kHl0Jh-3" value="字节码文件" style="rounded=1;whiteSpace=wrap;html=1;" parent="1" vertex="1">
          <mxGeometry x="355" y="280" width="100" height="30" as="geometry" />
        </mxCell>
        <mxCell id="5LBQB4eE829Ms8kHl0Jh-5" value="编译" style="text;html=1;align=center;verticalAlign=middle;resizable=0;points=[];autosize=1;strokeColor=none;fillColor=none;" parent="1" vertex="1">
          <mxGeometry x="282.5" y="270" width="50" height="30" as="geometry" />
        </mxCell>
        <mxCell id="5LBQB4eE829Ms8kHl0Jh-6" value="底层操作系统可执行的机器码" style="rounded=1;whiteSpace=wrap;html=1;" parent="1" vertex="1">
          <mxGeometry x="530" y="280" width="170" height="30" as="geometry" />
        </mxCell>
        <mxCell id="5LBQB4eE829Ms8kHl0Jh-8" value="jvm+jre" style="text;html=1;align=center;verticalAlign=middle;resizable=0;points=[];autosize=1;strokeColor=none;fillColor=none;" parent="1" vertex="1">
          <mxGeometry x="460" y="270" width="60" height="30" as="geometry" />
        </mxCell>
        <mxCell id="5LBQB4eE829Ms8kHl0Jh-20" value="" style="edgeStyle=orthogonalEdgeStyle;rounded=0;orthogonalLoop=1;jettySize=auto;html=1;" parent="1" source="5LBQB4eE829Ms8kHl0Jh-9" target="5LBQB4eE829Ms8kHl0Jh-5" edge="1">
          <mxGeometry relative="1" as="geometry" />
        </mxCell>
        <mxCell id="5LBQB4eE829Ms8kHl0Jh-9" value="Java编译器" style="rounded=1;whiteSpace=wrap;html=1;" parent="1" vertex="1">
          <mxGeometry x="260" y="185" width="95" height="35" as="geometry" />
        </mxCell>
        <mxCell id="5LBQB4eE829Ms8kHl0Jh-13" style="edgeStyle=orthogonalEdgeStyle;rounded=0;orthogonalLoop=1;jettySize=auto;html=1;exitX=0.5;exitY=1;exitDx=0;exitDy=0;entryX=0.5;entryY=0;entryDx=0;entryDy=0;" parent="1" source="5LBQB4eE829Ms8kHl0Jh-10" target="5LBQB4eE829Ms8kHl0Jh-9" edge="1">
          <mxGeometry relative="1" as="geometry" />
        </mxCell>
        <mxCell id="5LBQB4eE829Ms8kHl0Jh-14" style="edgeStyle=orthogonalEdgeStyle;rounded=0;orthogonalLoop=1;jettySize=auto;html=1;exitX=0.5;exitY=1;exitDx=0;exitDy=0;entryX=0.5;entryY=0;entryDx=0;entryDy=0;" parent="1" source="5LBQB4eE829Ms8kHl0Jh-10" target="5LBQB4eE829Ms8kHl0Jh-12" edge="1">
          <mxGeometry relative="1" as="geometry" />
        </mxCell>
        <mxCell id="5LBQB4eE829Ms8kHl0Jh-15" style="edgeStyle=orthogonalEdgeStyle;rounded=0;orthogonalLoop=1;jettySize=auto;html=1;exitX=0.5;exitY=1;exitDx=0;exitDy=0;entryX=0.5;entryY=0;entryDx=0;entryDy=0;" parent="1" source="5LBQB4eE829Ms8kHl0Jh-10" target="5LBQB4eE829Ms8kHl0Jh-11" edge="1">
          <mxGeometry relative="1" as="geometry" />
        </mxCell>
        <mxCell id="5LBQB4eE829Ms8kHl0Jh-10" value="JDK" style="rounded=1;whiteSpace=wrap;html=1;" parent="1" vertex="1">
          <mxGeometry x="378.75" y="100" width="97.5" height="30" as="geometry" />
        </mxCell>
        <mxCell id="5LBQB4eE829Ms8kHl0Jh-23" style="edgeStyle=orthogonalEdgeStyle;rounded=0;orthogonalLoop=1;jettySize=auto;html=1;exitX=0.5;exitY=1;exitDx=0;exitDy=0;" parent="1" source="5LBQB4eE829Ms8kHl0Jh-11" target="5LBQB4eE829Ms8kHl0Jh-8" edge="1">
          <mxGeometry relative="1" as="geometry" />
        </mxCell>
        <mxCell id="5LBQB4eE829Ms8kHl0Jh-11" value="JVM" style="rounded=1;whiteSpace=wrap;html=1;" parent="1" vertex="1">
          <mxGeometry x="500" y="185" width="90" height="35" as="geometry" />
        </mxCell>
        <mxCell id="5LBQB4eE829Ms8kHl0Jh-22" style="edgeStyle=orthogonalEdgeStyle;rounded=0;orthogonalLoop=1;jettySize=auto;html=1;exitX=0.5;exitY=1;exitDx=0;exitDy=0;" parent="1" source="5LBQB4eE829Ms8kHl0Jh-12" target="5LBQB4eE829Ms8kHl0Jh-8" edge="1">
          <mxGeometry relative="1" as="geometry" />
        </mxCell>
        <mxCell id="5LBQB4eE829Ms8kHl0Jh-12" value="JRE" style="rounded=1;whiteSpace=wrap;html=1;" parent="1" vertex="1">
          <mxGeometry x="377.5" y="185" width="100" height="35" as="geometry" />
        </mxCell>
        <mxCell id="6GjiStOughrnG-RPMvq7-55" style="edgeStyle=orthogonalEdgeStyle;rounded=0;orthogonalLoop=1;jettySize=auto;html=1;exitX=1;exitY=0.5;exitDx=0;exitDy=0;entryX=0;entryY=0.5;entryDx=0;entryDy=0;" parent="1" source="6GjiStOughrnG-RPMvq7-2" target="6GjiStOughrnG-RPMvq7-46" edge="1">
          <mxGeometry relative="1" as="geometry" />
        </mxCell>
        <mxCell id="6GjiStOughrnG-RPMvq7-2" value="student" style="rounded=1;whiteSpace=wrap;html=1;" parent="1" vertex="1">
          <mxGeometry x="107.5" y="490" width="97.5" height="30" as="geometry" />
        </mxCell>
        <mxCell id="6GjiStOughrnG-RPMvq7-5" value="新生代" style="text;html=1;strokeColor=none;fillColor=none;align=center;verticalAlign=middle;whiteSpace=wrap;rounded=0;" parent="1" vertex="1">
          <mxGeometry x="296.25" y="445" width="71.25" height="25" as="geometry" />
        </mxCell>
        <mxCell id="6GjiStOughrnG-RPMvq7-6" value="堆内存区域2" style="text;html=1;strokeColor=none;fillColor=none;align=center;verticalAlign=middle;whiteSpace=wrap;rounded=0;" parent="1" vertex="1">
          <mxGeometry x="450" y="495" width="80" height="25" as="geometry" />
        </mxCell>
        <mxCell id="6GjiStOughrnG-RPMvq7-56" style="edgeStyle=orthogonalEdgeStyle;rounded=0;orthogonalLoop=1;jettySize=auto;html=1;exitX=1;exitY=0.5;exitDx=0;exitDy=0;" parent="1" source="6GjiStOughrnG-RPMvq7-8" target="6GjiStOughrnG-RPMvq7-46" edge="1">
          <mxGeometry relative="1" as="geometry" />
        </mxCell>
        <mxCell id="6GjiStOughrnG-RPMvq7-8" value="teacher" style="rounded=1;whiteSpace=wrap;html=1;" parent="1" vertex="1">
          <mxGeometry x="107.5" y="540" width="97.5" height="30" as="geometry" />
        </mxCell>
        <mxCell id="6GjiStOughrnG-RPMvq7-10" value="student" style="rounded=1;whiteSpace=wrap;html=1;" parent="1" vertex="1">
          <mxGeometry x="302.5" y="530" width="50" height="17.5" as="geometry" />
        </mxCell>
        <mxCell id="6GjiStOughrnG-RPMvq7-11" value="teacher" style="rounded=1;whiteSpace=wrap;html=1;" parent="1" vertex="1">
          <mxGeometry x="302.5" y="560" width="50" height="20" as="geometry" />
        </mxCell>
        <mxCell id="6GjiStOughrnG-RPMvq7-22" value="留下活跃的对象，清空区域1" style="text;html=1;align=center;verticalAlign=middle;resizable=0;points=[];autosize=1;strokeColor=none;fillColor=none;" parent="1" vertex="1">
          <mxGeometry x="377.5" y="750" width="170" height="30" as="geometry" />
        </mxCell>
        <mxCell id="6GjiStOughrnG-RPMvq7-37" style="edgeStyle=orthogonalEdgeStyle;rounded=0;orthogonalLoop=1;jettySize=auto;html=1;entryX=0.5;entryY=1;entryDx=0;entryDy=0;" parent="1" source="6GjiStOughrnG-RPMvq7-35" target="6GjiStOughrnG-RPMvq7-11" edge="1">
          <mxGeometry relative="1" as="geometry">
            <mxPoint x="304.56500000000005" y="654.5" as="targetPoint" />
          </mxGeometry>
        </mxCell>
        <mxCell id="6GjiStOughrnG-RPMvq7-35" value="标记-清除算法" style="ellipse;whiteSpace=wrap;html=1;" parent="1" vertex="1">
          <mxGeometry x="90" y="630" width="100" height="20" as="geometry" />
        </mxCell>
        <mxCell id="6GjiStOughrnG-RPMvq7-38" value="标记活跃的对象" style="text;html=1;align=center;verticalAlign=middle;resizable=0;points=[];autosize=1;strokeColor=none;fillColor=none;" parent="1" vertex="1">
          <mxGeometry x="192.5" y="610" width="110" height="30" as="geometry" />
        </mxCell>
        <mxCell id="6GjiStOughrnG-RPMvq7-49" value="" style="endArrow=none;dashed=1;html=1;rounded=0;entryX=0.5;entryY=0;entryDx=0;entryDy=0;exitX=0.5;exitY=1;exitDx=0;exitDy=0;" parent="1" source="6GjiStOughrnG-RPMvq7-46" target="6GjiStOughrnG-RPMvq7-46" edge="1">
          <mxGeometry width="50" height="50" relative="1" as="geometry">
            <mxPoint x="240" y="780" as="sourcePoint" />
            <mxPoint x="290" y="730" as="targetPoint" />
          </mxGeometry>
        </mxCell>
        <mxCell id="6GjiStOughrnG-RPMvq7-50" value="堆内存区域1" style="text;html=1;strokeColor=none;fillColor=none;align=center;verticalAlign=middle;whiteSpace=wrap;rounded=0;" parent="1" vertex="1">
          <mxGeometry x="294.38" y="495" width="71.25" height="25" as="geometry" />
        </mxCell>
        <mxCell id="6GjiStOughrnG-RPMvq7-51" value="老年代" style="text;html=1;strokeColor=none;fillColor=none;align=center;verticalAlign=middle;whiteSpace=wrap;rounded=0;" parent="1" vertex="1">
          <mxGeometry x="640" y="450" width="71.25" height="25" as="geometry" />
        </mxCell>
        <mxCell id="6GjiStOughrnG-RPMvq7-54" value="" style="endArrow=none;dashed=1;html=1;rounded=0;entryX=0.25;entryY=0;entryDx=0;entryDy=0;exitX=0.25;exitY=1;exitDx=0;exitDy=0;" parent="1" source="6GjiStOughrnG-RPMvq7-46" target="6GjiStOughrnG-RPMvq7-46" edge="1">
          <mxGeometry width="50" height="50" relative="1" as="geometry">
            <mxPoint x="380" y="590" as="sourcePoint" />
            <mxPoint x="430" y="540" as="targetPoint" />
          </mxGeometry>
        </mxCell>
        <mxCell id="6GjiStOughrnG-RPMvq7-83" style="edgeStyle=orthogonalEdgeStyle;rounded=0;orthogonalLoop=1;jettySize=auto;html=1;exitX=0.5;exitY=1;exitDx=0;exitDy=0;entryX=0.5;entryY=0;entryDx=0;entryDy=0;" parent="1" source="6GjiStOughrnG-RPMvq7-57" target="6GjiStOughrnG-RPMvq7-82" edge="1">
          <mxGeometry relative="1" as="geometry" />
        </mxCell>
        <mxCell id="6GjiStOughrnG-RPMvq7-57" value="&amp;nbsp;" style="rounded=1;whiteSpace=wrap;html=1;" parent="1" vertex="1">
          <mxGeometry x="282.5" y="790" width="527.5" height="175" as="geometry" />
        </mxCell>
        <mxCell id="6GjiStOughrnG-RPMvq7-58" value="新生代" style="text;html=1;strokeColor=none;fillColor=none;align=center;verticalAlign=middle;whiteSpace=wrap;rounded=0;" parent="1" vertex="1">
          <mxGeometry x="296.25" y="790" width="71.25" height="25" as="geometry" />
        </mxCell>
        <mxCell id="6GjiStOughrnG-RPMvq7-59" value="堆内存区域2" style="text;html=1;strokeColor=none;fillColor=none;align=center;verticalAlign=middle;whiteSpace=wrap;rounded=0;" parent="1" vertex="1">
          <mxGeometry x="450" y="840" width="80" height="25" as="geometry" />
        </mxCell>
        <mxCell id="6GjiStOughrnG-RPMvq7-62" value="" style="endArrow=none;dashed=1;html=1;rounded=0;entryX=0.5;entryY=0;entryDx=0;entryDy=0;exitX=0.5;exitY=1;exitDx=0;exitDy=0;" parent="1" source="6GjiStOughrnG-RPMvq7-57" target="6GjiStOughrnG-RPMvq7-57" edge="1">
          <mxGeometry width="50" height="50" relative="1" as="geometry">
            <mxPoint x="240" y="1125" as="sourcePoint" />
            <mxPoint x="290" y="1075" as="targetPoint" />
          </mxGeometry>
        </mxCell>
        <mxCell id="6GjiStOughrnG-RPMvq7-63" value="堆内存区域1" style="text;html=1;strokeColor=none;fillColor=none;align=center;verticalAlign=middle;whiteSpace=wrap;rounded=0;" parent="1" vertex="1">
          <mxGeometry x="294.38" y="840" width="71.25" height="25" as="geometry" />
        </mxCell>
        <mxCell id="6GjiStOughrnG-RPMvq7-64" value="老年代" style="text;html=1;strokeColor=none;fillColor=none;align=center;verticalAlign=middle;whiteSpace=wrap;rounded=0;" parent="1" vertex="1">
          <mxGeometry x="640" y="795" width="71.25" height="25" as="geometry" />
        </mxCell>
        <mxCell id="6GjiStOughrnG-RPMvq7-65" value="" style="endArrow=none;dashed=1;html=1;rounded=0;entryX=0.25;entryY=0;entryDx=0;entryDy=0;exitX=0.25;exitY=1;exitDx=0;exitDy=0;" parent="1" source="6GjiStOughrnG-RPMvq7-57" target="6GjiStOughrnG-RPMvq7-57" edge="1">
          <mxGeometry width="50" height="50" relative="1" as="geometry">
            <mxPoint x="380" y="935" as="sourcePoint" />
            <mxPoint x="430" y="885" as="targetPoint" />
          </mxGeometry>
        </mxCell>
        <mxCell id="6GjiStOughrnG-RPMvq7-67" value="" style="edgeStyle=orthogonalEdgeStyle;rounded=0;orthogonalLoop=1;jettySize=auto;html=1;exitX=0.5;exitY=1;exitDx=0;exitDy=0;" parent="1" source="6GjiStOughrnG-RPMvq7-46" target="6GjiStOughrnG-RPMvq7-36" edge="1">
          <mxGeometry relative="1" as="geometry">
            <mxPoint x="546.1666666666667" y="660" as="targetPoint" />
            <mxPoint x="546" y="620" as="sourcePoint" />
          </mxGeometry>
        </mxCell>
        <mxCell id="6GjiStOughrnG-RPMvq7-68" style="edgeStyle=orthogonalEdgeStyle;rounded=0;orthogonalLoop=1;jettySize=auto;html=1;entryX=0.5;entryY=0;entryDx=0;entryDy=0;" parent="1" source="6GjiStOughrnG-RPMvq7-36" target="6GjiStOughrnG-RPMvq7-69" edge="1">
          <mxGeometry relative="1" as="geometry">
            <mxPoint x="546.25" y="710" as="targetPoint" />
          </mxGeometry>
        </mxCell>
        <mxCell id="6GjiStOughrnG-RPMvq7-36" value="复制算法" style="ellipse;whiteSpace=wrap;html=1;" parent="1" vertex="1">
          <mxGeometry x="512.5" y="660" width="67.5" height="20" as="geometry" />
        </mxCell>
        <mxCell id="6GjiStOughrnG-RPMvq7-70" style="edgeStyle=orthogonalEdgeStyle;rounded=0;orthogonalLoop=1;jettySize=auto;html=1;entryX=0.5;entryY=0;entryDx=0;entryDy=0;" parent="1" source="6GjiStOughrnG-RPMvq7-69" target="6GjiStOughrnG-RPMvq7-57" edge="1">
          <mxGeometry relative="1" as="geometry" />
        </mxCell>
        <mxCell id="6GjiStOughrnG-RPMvq7-69" value="标记整理-算法" style="ellipse;whiteSpace=wrap;html=1;" parent="1" vertex="1">
          <mxGeometry x="502.5" y="720" width="87.5" height="20" as="geometry" />
        </mxCell>
        <mxCell id="6GjiStOughrnG-RPMvq7-71" value="teacher" style="rounded=1;whiteSpace=wrap;html=1;" parent="1" vertex="1">
          <mxGeometry x="462.5" y="870" width="50" height="20" as="geometry" />
        </mxCell>
        <mxCell id="6GjiStOughrnG-RPMvq7-73" value="区域1复制到区域2" style="text;html=1;align=center;verticalAlign=middle;resizable=0;points=[];autosize=1;strokeColor=none;fillColor=none;" parent="1" vertex="1">
          <mxGeometry x="572.5" y="630" width="120" height="30" as="geometry" />
        </mxCell>
        <mxCell id="6GjiStOughrnG-RPMvq7-74" value="&amp;nbsp;" style="rounded=1;whiteSpace=wrap;html=1;" parent="1" vertex="1">
          <mxGeometry x="281.25" y="1070" width="527.5" height="175" as="geometry" />
        </mxCell>
        <mxCell id="6GjiStOughrnG-RPMvq7-75" value="新生代" style="text;html=1;strokeColor=none;fillColor=none;align=center;verticalAlign=middle;whiteSpace=wrap;rounded=0;" parent="1" vertex="1">
          <mxGeometry x="295" y="1070" width="71.25" height="25" as="geometry" />
        </mxCell>
        <mxCell id="6GjiStOughrnG-RPMvq7-76" value="堆内存区域2" style="text;html=1;strokeColor=none;fillColor=none;align=center;verticalAlign=middle;whiteSpace=wrap;rounded=0;" parent="1" vertex="1">
          <mxGeometry x="448.75" y="1120" width="80" height="25" as="geometry" />
        </mxCell>
        <mxCell id="6GjiStOughrnG-RPMvq7-77" value="" style="endArrow=none;dashed=1;html=1;rounded=0;entryX=0.5;entryY=0;entryDx=0;entryDy=0;exitX=0.5;exitY=1;exitDx=0;exitDy=0;" parent="1" source="6GjiStOughrnG-RPMvq7-74" target="6GjiStOughrnG-RPMvq7-74" edge="1">
          <mxGeometry width="50" height="50" relative="1" as="geometry">
            <mxPoint x="238.75" y="1405" as="sourcePoint" />
            <mxPoint x="288.75" y="1355" as="targetPoint" />
          </mxGeometry>
        </mxCell>
        <mxCell id="6GjiStOughrnG-RPMvq7-78" value="堆内存区域1" style="text;html=1;strokeColor=none;fillColor=none;align=center;verticalAlign=middle;whiteSpace=wrap;rounded=0;" parent="1" vertex="1">
          <mxGeometry x="293.13" y="1120" width="71.25" height="25" as="geometry" />
        </mxCell>
        <mxCell id="6GjiStOughrnG-RPMvq7-79" value="老年代" style="text;html=1;strokeColor=none;fillColor=none;align=center;verticalAlign=middle;whiteSpace=wrap;rounded=0;" parent="1" vertex="1">
          <mxGeometry x="638.75" y="1075" width="71.25" height="25" as="geometry" />
        </mxCell>
        <mxCell id="6GjiStOughrnG-RPMvq7-80" value="" style="endArrow=none;dashed=1;html=1;rounded=0;entryX=0.25;entryY=0;entryDx=0;entryDy=0;exitX=0.25;exitY=1;exitDx=0;exitDy=0;" parent="1" source="6GjiStOughrnG-RPMvq7-74" target="6GjiStOughrnG-RPMvq7-74" edge="1">
          <mxGeometry width="50" height="50" relative="1" as="geometry">
            <mxPoint x="378.75" y="1215" as="sourcePoint" />
            <mxPoint x="428.75" y="1165" as="targetPoint" />
          </mxGeometry>
        </mxCell>
        <mxCell id="6GjiStOughrnG-RPMvq7-85" style="edgeStyle=orthogonalEdgeStyle;rounded=0;orthogonalLoop=1;jettySize=auto;html=1;exitX=0.5;exitY=1;exitDx=0;exitDy=0;" parent="1" source="6GjiStOughrnG-RPMvq7-82" edge="1">
          <mxGeometry relative="1" as="geometry">
            <mxPoint x="546.2758620689656" y="1070" as="targetPoint" />
          </mxGeometry>
        </mxCell>
        <mxCell id="6GjiStOughrnG-RPMvq7-82" value="分代回收策略" style="ellipse;whiteSpace=wrap;html=1;" parent="1" vertex="1">
          <mxGeometry x="502.5" y="1010" width="87.5" height="20" as="geometry" />
        </mxCell>
        <mxCell id="6GjiStOughrnG-RPMvq7-84" value="多次垃圾回收后仍然活跃的对象晋升老年代" style="text;html=1;align=center;verticalAlign=middle;resizable=0;points=[];autosize=1;strokeColor=none;fillColor=none;" parent="1" vertex="1">
          <mxGeometry x="550.63" y="1040" width="250" height="30" as="geometry" />
        </mxCell>
        <mxCell id="6GjiStOughrnG-RPMvq7-86" value="teacher" style="rounded=1;whiteSpace=wrap;html=1;" parent="1" vertex="1">
          <mxGeometry x="649.38" y="1125" width="50" height="20" as="geometry" />
        </mxCell>
        <mxCell id="-TAO6FjpOgP8DFJErPAA-4" style="edgeStyle=orthogonalEdgeStyle;rounded=0;orthogonalLoop=1;jettySize=auto;html=1;entryX=0;entryY=0.5;entryDx=0;entryDy=0;" edge="1" parent="1" source="-TAO6FjpOgP8DFJErPAA-5" target="-TAO6FjpOgP8DFJErPAA-6">
          <mxGeometry relative="1" as="geometry" />
        </mxCell>
        <mxCell id="-TAO6FjpOgP8DFJErPAA-5" value="对象" style="rounded=1;whiteSpace=wrap;html=1;" vertex="1" parent="1">
          <mxGeometry x="1000" y="260" width="110" height="50" as="geometry" />
        </mxCell>
        <mxCell id="-TAO6FjpOgP8DFJErPAA-6" value="字节流" style="rounded=1;whiteSpace=wrap;html=1;" vertex="1" parent="1">
          <mxGeometry x="1200" y="260" width="110" height="50" as="geometry" />
        </mxCell>
        <mxCell id="-TAO6FjpOgP8DFJErPAA-8" value="对象" style="rounded=1;whiteSpace=wrap;html=1;" vertex="1" parent="1">
          <mxGeometry x="1010" y="370" width="110" height="50" as="geometry" />
        </mxCell>
        <mxCell id="-TAO6FjpOgP8DFJErPAA-10" style="edgeStyle=orthogonalEdgeStyle;rounded=0;orthogonalLoop=1;jettySize=auto;html=1;exitX=0;exitY=0.5;exitDx=0;exitDy=0;entryX=1;entryY=0.5;entryDx=0;entryDy=0;" edge="1" parent="1" source="-TAO6FjpOgP8DFJErPAA-9" target="-TAO6FjpOgP8DFJErPAA-8">
          <mxGeometry relative="1" as="geometry" />
        </mxCell>
        <mxCell id="-TAO6FjpOgP8DFJErPAA-9" value="字节流" style="rounded=1;whiteSpace=wrap;html=1;" vertex="1" parent="1">
          <mxGeometry x="1210" y="370" width="110" height="50" as="geometry" />
        </mxCell>
      </root>
    </mxGraphModel>
  </diagram>
</mxfile>
